PathFileType	4	(X/Y/Z)	C:/Users/opensim2020/Desktop/walking_exp_matlab/subject02_walking13_straight_04.trc																																																																																																																									
DataRate	CameraRate	NumFrames	NumMarkers	Units	OrigDataRate	OrigDataStartFrame	OrigNumFrames																																																																																																																					
100	100	4	41	mm	100	1765	118																																																																																																																					
Frame#	Time	LFHD			RFHD			LBHD			RBHD			C7			T10			CLAV			STRN			RBAK			LSHO			LUPA			LELB			LFRM			LWRA			LWRB			LFIN			RSHO			RUPA			RELB			RFRM			RWRA			RWRB			RFIN			LASI			RASI			LPSI			RPSI			LTHI			LKNE			LTIB			LANK			LHEE			LTOE			RTHI			RKNE			RTIB			RANK			RHEE			RTOE			*39			*40		
		X1	Y1	Z1	X2	Y2	Z2	X3	Y3	Z3	X4	Y4	Z4	X5	Y5	Z5	X6	Y6	Z6	X7	Y7	Z7	X8	Y8	Z8	X9	Y9	Z9	X10	Y10	Z10	X11	Y11	Z11	X12	Y12	Z12	X13	Y13	Z13	X14	Y14	Z14	X15	Y15	Z15	X16	Y16	Z16	X17	Y17	Z17	X18	Y18	Z18	X19	Y19	Z19	X20	Y20	Z20	X21	Y21	Z21	X22	Y22	Z22	X23	Y23	Z23	X24	Y24	Z24	X25	Y25	Z25	X26	Y26	Z26	X27	Y27	Z27	X28	Y28	Z28	X29	Y29	Z29	X30	Y30	Z30	X31	Y31	Z31	X32	Y32	Z32	X33	Y33	Z33	X34	Y34	Z34	X35	Y35	Z35	X36	Y36	Z36	X37	Y37	Z37	X38	Y38	Z38	X39	Y39	Z39	X40	Y40	Z40	X41	Y41	Z41
																																																																																																																												
30	0.29	-447.31781	1738.94775	-1456.94641	-467.15903	1716.19922	-1315.97424	-582.75739	1678.37598	-1483.74854	-614.3822	1655.66858	-1345.08325	-655.6557	1531.7594	-1413.87952	-700.92261	1252.10022	-1410.45886	-514.35687	1467.81104	-1426.13232	-456.63449	1298.60327	-1418.90344	-709.04999	1351.302	-1350.4668	-588.7547	1508.07422	-1592.81189	-601.57983	1312.29028	-1689.79102	-605.99017	1174.46277	-1712.99939	-599.47113	1045.68799	-1739.33484	-555.72839	913.35669	-1713.7406	-592.82373	923.30347	-1755.41736	-575.10547	859.15295	-1762.35144	-583.06146	1499.90747	-1229.724	-608.23901	1308.84326	-1147.51294	-586.55981	1160.54871	-1131.64832	-532.92139	1050.37842	-1123.35571	-455.03375	943.30157	-1153.12341	-498.67551	924.37683	-1122.13904	-444.41699	874.88586	-1125.37463	-472.41888	1000.64703	-1550.38989	-476.89188	978.11804	-1298.62463	-681.39929	1046.62524	-1475.45166	-686.00262	1038.10168	-1360.03455	-539.67615	686.67822	-1614.46155	-569.24255	484.6839	-1587.74646	-629.79193	297.9794	-1591.03296	-628.30322	73.42997	-1558.61584	-664.7381	44.82478	-1508.97473	-471.69254	35.45516	-1570.3031	-498.10931	668.22046	-1240.20129	-453.04648	479.03259	-1267.98047	-587.73053	358.04971	-1277.41663	-713.79395	217.28996	-1323.06213	-765.73688	190.61975	-1387.37158	-635.96204	82.44714	-1294.52283	-552.67804	1812.07886	-1377.00842	-2845.24561	1034.16272	3360.43506
31	0.3	-434.09335	1739.31555	-1458.17041	-454.19315	1716.38757	-1317.1748	-569.44635	1678.77808	-1484.99109	-601.31964	1655.9613	-1346.39978	-642.69006	1532.2948	-1415.49951	-688.51257	1252.78247	-1413.1405	-501.43307	1468.15857	-1427.302	-444.16003	1298.65759	-1420.40735	-696.67072	1352.04382	-1352.69226	-575.21716	1509.41516	-1594.23083	-584.12152	1314.75562	-1693.39954	-584.81854	1177.07813	-1719.36475	-572.80249	1048.4082	-1746.41479	-523.05774	918.60657	-1722.50732	-561.22345	926.67126	-1763.42822	-540.15344	864.07532	-1771.58594	-570.56311	1499.68921	-1231.06641	-596.70166	1308.98865	-1149.38025	-578.36041	1160.4873	-1133.46143	-527.64166	1048.92542	-1124.90613	-453.18448	939.31366	-1154.66931	-497.45126	921.95135	-1123.20398	-444.62317	870.30182	-1126.69495	-461.98691	1000.30377	-1553.14185	-464.18518	979.69336	-1302.60535	-669.97876	1046.81335	-1476.67688	-674.26202	1038.92847	-1361.06787	-534.3009	686.06061	-1615.38684	-567.54187	484.60599	-1588.30505	-629.84625	298.49442	-1590.97449	-628.48553	73.74546	-1558.59656	-664.64294	44.79354	-1508.69019	-471.75491	35.39127	-1570.31677	-480.32745	671.27405	-1241.04797	-430.34134	481.96249	-1270.43982	-559.40387	353.99527	-1280.03223	-678.13251	207.25073	-1326.63135	-729.03802	177.47595	-1390.81592	-592.1839	77.68373	-1299.14807	-539.29614	1812.1958	-1377.94861	-2845.27417	1034.36182	3360.42944
32	0.31	-420.70303	1739.19849	-1459.01685	-440.98978	1716.13794	-1318.1051	-556.05652	1678.83923	-1486.13965	-588.26477	1655.85901	-1347.67944	-629.6842	1532.50183	-1417.06665	-676.13654	1253.19019	-1415.57532	-488.76181	1468.01086	-1428.4624	-432.15912	1298.55176	-1422.32288	-684.25104	1352.42847	-1354.65295	-561.56604	1510.20496	-1595.41565	-566.84595	1316.92444	-1697.03979	-563.54852	1179.36084	-1725.37769	-546.32178	1051.59399	-1753.80542	-490.25787	924.19305	-1730.8877	-529.41937	930.38702	-1771.09106	-505.05634	869.04388	-1780.01184	-558.19904	1499.22302	-1232.67883	-587.31799	1308.7572	-1150.67004	-570.185	1160.10498	-1135.17798	-522.03241	1047.32886	-1126.22876	-451.29391	935.31061	-1156.07275	-495.6868	919.38123	-1123.89099	-444.89038	866.14386	-1128.16101	-451.73456	1000.02277	-1556.79822	-451.4364	980.74207	-1306.63354	-658.62427	1046.65527	-1477.68005	-662.47083	1039.4187	-1361.74304	-528.034	685.39325	-1616.0072	-564.84637	484.44751	-1589.03625	-628.59021	298.74484	-1591.1908	-628.47131	73.79649	-1558.41199	-664.92773	45.18587	-1508.7373	-471.80762	35.34071	-1570.36987	-462.89246	673.69922	-1241.74243	-408.46548	484.62979	-1272.8429	-530.84662	349.17657	-1282.42651	-641.46906	196.3965	-1329.58459	-690.82172	163.45381	-1393.8396	-547.24939	73.24691	-1303.07324	-526.10669	1812.25244	-1379.05676	-2845.82324	1034.30432	3357.47266
33	0.32	-407.35358	1738.6781	-1459.6416	-427.92609	1715.52734	-1318.91663	-542.67401	1678.64758	-1487.24951	-575.1347	1655.4624	-1348.87292	-616.66376	1532.47107	-1418.53259	-663.77014	1253.24609	-1417.73816	-475.77441	1467.76843	-1429.70166	-419.80978	1298.01477	-1424.04602	-672.07489	1352.66162	-1356.83374	-548.00562	1510.64746	-1596.62756	-549.79114	1318.85779	-1700.4198	-542.7334	1181.81726	-1731.65515	-519.77246	1054.70605	-1760.80823	-457.36484	930.04297	-1738.77771	-497.45737	934.29779	-1778.31238	-470.55356	874.57159	-1788.19299	-545.73431	1498.23425	-1233.98767	-577.15991	1308.00842	-1152.87207	-562.00366	1159.4137	-1136.71826	-517.18585	1045.45129	-1127.60156	-449.53992	931.27386	-1157.34924	-494.05823	916.81311	-1124.66333	-444.92465	861.80487	-1129.02698	-442.24854	998.87683	-1560.03613	-438.59418	981.25793	-1310.55981	-647.46747	1046.17712	-1478.2948	-650.61121	1039.66614	-1362.24377	-522.40057	684.73663	-1616.65564	-561.49866	484.03949	-1589.50891	-626.20459	298.72681	-1591.51318	-628.35663	73.85706	-1558.29517	-664.66785	45.02259	-1508.36658	-471.83578	35.2581	-1570.44104	-445.71069	676.01398	-1242.39758	-387.29681	486.97125	-1275.05835	-502.21906	343.83942	-1284.55884	-604.60858	185.2028	-1332.68677	-651.34955	149.01134	-1396.39343	-501.82742	69.05294	-1306.51172	-512.71246	1811.79272	-1379.75488	-2845.83325	1034.30969	3357.2688
